<svg width="480" height="182" viewBox="0 0 480 182" fill="none" xmlns="http://www.w3.org/2000/svg">
<g clip-path="url(#clip0_1_2)">
<path d="M90 45C90 20.1472 69.8528 0 45 0C20.1472 0 0 20.1472 0 45C0 67.4605 16.4558 86.0774 37.9688 89.4533V58.0078H26.543V45H37.9688V35.0859C37.9688 23.8078 44.6871 17.5781 54.9659 17.5781C59.8878 17.5781 65.0391 18.457 65.0391 18.457V29.5313H59.3648C53.775 29.5313 52.0312 33.0003 52.0312 36.5625V45H64.5117L62.5166 58.0078H52.0312V89.4533C73.5442 86.0774 90 67.4605 90 45Z" fill="#954CED"/>
<path d="M62.5166 58.0078L64.5117 45H52.0312V36.5625C52.0312 33.0038 53.775 29.5312 59.3648 29.5312H65.0391V18.457C65.0391 18.457 59.8896 17.5781 54.9659 17.5781C44.6871 17.5781 37.9688 23.8078 37.9688 35.0859V45H26.543V58.0078H37.9688V89.4533C42.6279 90.1822 47.3721 90.1822 52.0312 89.4533V58.0078H62.5166Z" fill="white"/>
</g>
<rect x="130" y="92" width="90" height="90" rx="45" fill="#954CED"/>
<g clip-path="url(#clip1_1_2)">
<path d="M166.872 155.663C183.955 155.663 193.299 141.51 193.299 129.236C193.299 128.834 193.299 128.434 193.272 128.035C195.09 126.721 196.659 125.093 197.906 123.228C196.211 123.979 194.413 124.472 192.571 124.689C194.51 123.528 195.961 121.703 196.655 119.552C194.831 120.634 192.837 121.396 190.757 121.806C189.356 120.317 187.504 119.331 185.487 119.001C183.47 118.67 181.4 119.014 179.598 119.978C177.795 120.943 176.361 122.475 175.517 124.336C174.673 126.198 174.466 128.286 174.928 130.277C171.236 130.092 167.623 129.132 164.325 127.46C161.028 125.789 158.118 123.442 155.786 120.573C154.598 122.618 154.235 125.038 154.769 127.342C155.303 129.645 156.695 131.659 158.662 132.972C157.183 132.928 155.738 132.53 154.446 131.809V131.927C154.447 134.071 155.189 136.149 156.547 137.809C157.905 139.468 159.796 140.607 161.898 141.032C160.53 141.405 159.096 141.459 157.704 141.191C158.297 143.036 159.453 144.65 161.009 145.807C162.565 146.963 164.443 147.605 166.381 147.641C164.455 149.155 162.25 150.274 159.892 150.935C157.533 151.595 155.067 151.784 152.635 151.491C156.883 154.217 161.825 155.663 166.872 155.656" fill="white"/>
</g>
<rect x="260" width="90" height="90" rx="45" fill="#954CED"/>
<g clip-path="url(#clip2_1_2)">
<path d="M305.271 26.7114C311.318 26.7114 312.035 26.738 314.413 26.8441C316.624 26.9413 317.817 27.3127 318.613 27.6222C319.665 28.0289 320.426 28.524 321.213 29.311C322.008 30.1067 322.495 30.8583 322.901 31.9105C323.211 32.7063 323.582 33.9088 323.679 36.1104C323.786 38.4977 323.812 39.2139 323.812 45.2529C323.812 51.3008 323.786 52.017 323.679 54.3955C323.582 56.6059 323.211 57.7996 322.901 58.5954C322.495 59.6476 321.999 60.408 321.213 61.1949C320.417 61.9907 319.665 62.477 318.613 62.8837C317.817 63.1932 316.615 63.5645 314.413 63.6618C312.026 63.7679 311.31 63.7944 305.271 63.7944C299.223 63.7944 298.506 63.7679 296.128 63.6618C293.918 63.5645 292.724 63.1932 291.928 62.8837C290.876 62.477 290.116 61.9818 289.329 61.1949C288.533 60.3991 288.047 59.6476 287.64 58.5954C287.33 57.7996 286.959 56.5971 286.862 54.3955C286.756 52.0082 286.729 51.292 286.729 45.2529C286.729 39.2051 286.756 38.4889 286.862 36.1104C286.959 33.8999 287.33 32.7063 287.64 31.9105C288.047 30.8583 288.542 30.0979 289.329 29.311C290.124 28.5152 290.876 28.0289 291.928 27.6222C292.724 27.3127 293.926 26.9413 296.128 26.8441C298.506 26.738 299.223 26.7114 305.271 26.7114ZM305.271 22.6353C299.125 22.6353 298.356 22.6618 295.942 22.7679C293.537 22.874 291.884 23.2631 290.452 23.8201C288.957 24.4037 287.693 25.1729 286.437 26.4373C285.173 27.6929 284.404 28.9573 283.82 30.4427C283.263 31.884 282.874 33.5286 282.768 35.9335C282.662 38.3562 282.635 39.1255 282.635 45.2706C282.635 51.4157 282.662 52.185 282.768 54.5988C282.874 57.0038 283.263 58.6573 283.82 60.0897C284.404 61.5839 285.173 62.8483 286.437 64.1039C287.693 65.3594 288.957 66.1375 290.443 66.7122C291.884 67.2693 293.528 67.6583 295.933 67.7644C298.347 67.8705 299.117 67.8971 305.262 67.8971C311.407 67.8971 312.176 67.8705 314.59 67.7644C316.995 67.6583 318.648 67.2693 320.081 66.7122C321.566 66.1375 322.831 65.3594 324.086 64.1039C325.342 62.8483 326.12 61.5839 326.694 60.0985C327.252 58.6573 327.641 57.0127 327.747 54.6077C327.853 52.1938 327.879 51.4246 327.879 45.2795C327.879 39.1343 327.853 38.3651 327.747 35.9512C327.641 33.5462 327.252 31.8928 326.694 30.4604C326.137 28.9573 325.368 27.6929 324.104 26.4373C322.848 25.1818 321.584 24.4037 320.098 23.829C318.657 23.2719 317.013 22.8829 314.608 22.7768C312.185 22.6618 311.416 22.6353 305.271 22.6353Z" fill="white"/>
<path d="M305.271 33.6435C298.851 33.6435 293.644 38.8514 293.644 45.2706C293.644 51.6898 298.851 56.8977 305.271 56.8977C311.69 56.8977 316.898 51.6898 316.898 45.2706C316.898 38.8514 311.69 33.6435 305.271 33.6435ZM305.271 52.8128C301.106 52.8128 297.729 49.4351 297.729 45.2706C297.729 41.1061 301.106 37.7285 305.271 37.7285C309.435 37.7285 312.813 41.1061 312.813 45.2706C312.813 49.4351 309.435 52.8128 305.271 52.8128Z" fill="white"/>
<path d="M320.072 33.1836C320.072 34.6868 318.852 35.8981 317.358 35.8981C315.854 35.8981 314.643 34.6779 314.643 33.1836C314.643 31.6805 315.863 30.4692 317.358 30.4692C318.852 30.4692 320.072 31.6894 320.072 33.1836Z" fill="white"/>
</g>
<rect x="390" y="92" width="90" height="90" rx="45" fill="#954CED"/>
<g clip-path="url(#clip3_1_2)">
<path d="M444.839 114.635H437.209V145.472C437.209 149.146 434.275 152.164 430.623 152.164C426.971 152.164 424.037 149.146 424.037 145.472C424.037 141.863 426.906 138.911 430.428 138.78V131.038C422.668 131.169 416.408 137.533 416.408 145.472C416.408 153.476 422.798 159.906 430.688 159.906C438.579 159.906 444.969 153.411 444.969 145.472V129.66C447.838 131.759 451.359 133.006 455.076 133.072V125.33C449.338 125.133 444.839 120.409 444.839 114.635Z" fill="white"/>
</g>
<defs>
<clipPath id="clip0_1_2">
<rect width="90" height="90" rx="45" fill="white"/>
</clipPath>
<clipPath id="clip1_1_2">
<rect width="45.2706" height="45.2706" fill="white" transform="translate(152.635 114.635)"/>
</clipPath>
<clipPath id="clip2_1_2">
<rect width="45.2706" height="45.2706" fill="white" transform="translate(282.635 22.6353)"/>
</clipPath>
<clipPath id="clip3_1_2">
<rect width="45.2706" height="45.2706" fill="white" transform="translate(412.635 114.635)"/>
</clipPath>
</defs>
</svg>
