<svg width="318" height="362" viewBox="0 0 318 362" fill="none" xmlns="http://www.w3.org/2000/svg">
<path opacity="0.7" d="M282 375C276 303 177.5 265.846 89.7476 276.849C4.59413 287.526 -22.049 343.646 10.4558 352.618C31.5001 358.427 66.1381 320.367 59.0701 265.846C52.0021 211.326 -31.5909 206.027 -56.1851 230.838C-80.7793 255.649 -33.6538 292.837 -16.1675 258.382C2.92011 220.771 -3.651 132.228 -64.3764 136.963C-72.7354 147.467 -80.8772 170.532 -46.5727 178.756C-3.69215 189.036 64.3878 105.838 47.8816 33.6149C31.3754 -38.6079 -64.3764 -3.50001 -39.98 67.507" stroke="#A64CED" stroke-width="70"/>
<rect opacity="0.7" x="14.9702" y="87.2216" width="169.189" height="339.449" rx="32.1245" transform="rotate(-17.1923 14.9702 87.2216)" fill="black"/>
<g clip-path="url(#clip0_1_8347)">
<rect x="21.6675" y="90.7539" width="158.481" height="328.741" rx="26.7704" transform="rotate(-17.1923 21.6675 90.7539)" fill="white"/>
<g clip-path="url(#clip1_1_8347)">
<rect x="53.4199" y="157.151" width="137.065" height="113.507" rx="21.4163" transform="rotate(-17.1923 53.4199 157.151)" fill="#F9F9F9"/>
<path opacity="0.7" d="M83.7822 240.791L104.242 234.461" stroke="#2FDBBC" stroke-width="128.498" stroke-linecap="round"/>
<circle cx="83.3754" cy="216.608" r="2.67704" transform="rotate(7.33967 83.3754 216.608)" fill="black"/>
<circle cx="106.225" cy="215.232" r="2.67704" transform="rotate(7.33967 106.225 215.232)" fill="black"/>
<path d="M96.7639 240.242C99.5686 241.418 105.313 239.734 101.368 234.23C110.063 231.539 101.235 224.743 96.0247 228.52" stroke="black" stroke-width="2.14163" stroke-linecap="round" stroke-linejoin="round"/>
<path d="M159.824 233.703C163.443 233.158 165.924 231.863 167.246 230.402M158.134 224.677C167.285 222.926 170.24 227.092 167.246 230.402M136.709 253.314C150.489 268.934 150.752 233.998 150.503 226.321C150.254 218.645 149.103 204.711 155.406 205.205C160.449 205.601 158.981 213.472 157.953 219.094C158.981 213.472 161.383 204.295 165.199 205.586C170.849 207.499 167.167 216.004 164.969 220.034M161.532 221.772C164.496 219.813 171.72 217.11 174.116 222.062C175.433 224.784 174.15 226.819 172.22 228.217M167.246 230.402C168.622 230.083 170.638 229.364 172.22 228.217M172.22 228.217C174.723 240.775 173.943 259.79 167.305 270.484C160.666 281.178 148.669 284.594 145.405 284.467" stroke="black" stroke-width="2.14163" stroke-linecap="round" stroke-linejoin="round"/>
<circle cx="160.996" cy="178.79" r="5.35409" transform="rotate(-17.1923 160.996 178.79)" stroke="black" stroke-width="2.14163"/>
<circle cx="194.268" cy="159.529" r="5.35409" transform="rotate(-17.1923 194.268 159.529)" stroke="black" stroke-width="2.14163"/>
<path d="M166.148 175.515L188.958 162.293M159.256 173.164L153.779 144.594" stroke="black" stroke-width="2.14163" stroke-linecap="round" stroke-linejoin="round"/>
<path d="M145.51 143.23L162.596 144.108" stroke="black" stroke-width="2.14163" stroke-linecap="round" stroke-linejoin="round"/>
</g>
<g clip-path="url(#clip2_1_8347)">
<rect x="44.2412" y="127.485" width="25.6996" height="25.6996" rx="12.8498" transform="rotate(-17.1923 44.2412 127.485)" fill="#DAFAF4"/>
<rect opacity="0.7" x="48.0393" y="139.76" width="25.6996" height="19.2747" rx="9.63735" transform="rotate(-17.1923 48.0393 139.76)" fill="#2FDBBC"/>
<circle cx="59.815" cy="143.403" r="0.535409" transform="rotate(-17.1923 59.815 143.403)" fill="black"/>
<circle cx="64.93" cy="141.82" r="0.535409" transform="rotate(-17.1923 64.93 141.82)" fill="black"/>
</g>
<g clip-path="url(#clip3_1_8347)">
<rect x="104.378" y="321.849" width="25.6996" height="25.6996" rx="12.8498" transform="rotate(-17.1923 104.378 321.849)" fill="#FFF5EB"/>
<rect opacity="0.7" x="108.176" y="334.125" width="25.6996" height="19.2747" rx="9.63735" transform="rotate(-17.1923 108.176 334.125)" fill="#FDC280"/>
<circle cx="119.952" cy="337.767" r="0.535409" transform="rotate(-17.1923 119.952 337.767)" fill="black"/>
<circle cx="125.067" cy="336.185" r="0.535409" transform="rotate(-17.1923 125.067 336.185)" fill="black"/>
<circle cx="119.952" cy="337.767" r="1.39206" transform="rotate(-17.1923 119.952 337.767)" stroke="black" stroke-width="0.428327"/>
<circle cx="125.067" cy="336.185" r="1.39206" transform="rotate(-17.1923 125.067 336.185)" stroke="black" stroke-width="0.428327"/>
<path d="M121.486 337.293L123.532 336.66" stroke="black" stroke-width="0.428327" stroke-linecap="round" stroke-linejoin="round"/>
</g>
<text transform="translate(73.5908 117.283) rotate(-17.1923)" fill="#B9B9B9" xml:space="preserve" style="white-space: pre" font-family="Outfit" font-size="12.8498" letter-spacing="0px"><tspan x="0" y="18.1396">Bubi</tspan></text>
<text transform="translate(35.5256 92.0706) rotate(-17.1923)" fill="#E4E4E4" xml:space="preserve" style="white-space: pre" font-family="Outfit" font-size="12.8498" font-weight="500" letter-spacing="0px"><tspan x="0" y="18.1396">Feed</tspan></text>
<g clip-path="url(#clip4_1_8347)">
<rect x="113.557" y="351.515" width="137.065" height="113.507" rx="21.4163" transform="rotate(-17.1923 113.557 351.515)" fill="#F9F9F9"/>
<path opacity="0.7" d="M286.994 350.536L221.523 370.793" stroke="#FFAA4C" stroke-width="103.147" stroke-linecap="round"/>
<path d="M220.275 356.736C218.631 359.316 212.765 361.269 209.246 360.095" stroke="black" stroke-width="2.14163" stroke-linecap="round" stroke-linejoin="round"/>
<circle cx="194.137" cy="352.925" r="2.67704" transform="rotate(-17.1923 194.137 352.925)" fill="black"/>
<circle cx="216.643" cy="345.961" r="2.67704" transform="rotate(-17.1923 216.643 345.961)" fill="black"/>
<circle cx="196.536" cy="351.622" r="7.49572" transform="rotate(-17.1923 196.536 351.622)" stroke="black" stroke-width="2.14163"/>
<circle cx="219.042" cy="344.659" r="7.49572" transform="rotate(-17.1923 219.042 344.659)" stroke="black" stroke-width="2.14163"/>
<path d="M203.855 349.918L212.039 347.386" stroke="black" stroke-width="2.14163" stroke-linecap="round" stroke-linejoin="round"/>
<path d="M135.016 375.564L133.688 375.263C131.382 374.738 129.086 376.183 128.562 378.49L122.893 403.426C122.369 405.733 123.813 408.028 126.12 408.553L150.795 414.162C153.101 414.686 155.396 413.241 155.921 410.935L161.59 385.998C162.114 383.691 160.669 381.396 158.363 380.872L152.054 379.438M135.016 375.564C135.505 370.989 137.688 362.113 142.511 363.209C147.335 364.306 146.514 373.492 145.501 377.948M135.016 375.564L140.259 376.756M145.501 377.948L140.259 376.756M145.501 377.948L152.054 379.438M140.259 376.756C140.787 372.006 143.324 362.787 149.243 363.912C155.163 365.038 153.584 374.731 152.054 379.438" stroke="black" stroke-width="2.14163" stroke-linecap="round" stroke-linejoin="round"/>
</g>
<text transform="translate(133.728 311.648) rotate(-17.1923)" fill="#B9B9B9" xml:space="preserve" style="white-space: pre" font-family="Outfit" font-size="12.8498" letter-spacing="0px"><tspan x="0" y="18.1396">Bubu</tspan></text>
<rect opacity="0.7" x="81.0225" y="86.9609" width="42.8327" height="10.7082" rx="5.35409" transform="rotate(-17.1923 81.0225 86.9609)" fill="black"/>
<text transform="translate(88.5525 270.701) rotate(-17.1923)" fill="#B9B9B9" xml:space="preserve" style="white-space: pre" font-family="Outfit" font-size="12.8498" letter-spacing="0px"><tspan x="0" y="12.7544">I bought myself&#x2028;</tspan><tspan x="0" y="28.7544">an electric scooter</tspan></text>
<path d="M159.085 63.929L161.617 72.1128" stroke="#E4E4E4" stroke-width="1.60623" stroke-linecap="round" stroke-linejoin="round"/>
<path d="M156.259 69.287L164.443 66.7549" stroke="#E4E4E4" stroke-width="1.60623" stroke-linecap="round" stroke-linejoin="round"/>
</g>
<g opacity="0.7" clip-path="url(#clip5_1_8347)">
<g clip-path="url(#clip6_1_8347)">
<path d="M248.654 84.5C248.658 84.9998 248.506 85.4884 248.219 85.8979C247.932 86.3074 247.525 86.6175 247.054 86.7852L237.32 90.3195L233.785 100.054C233.612 100.521 233.3 100.923 232.892 101.207C232.483 101.491 231.998 101.644 231.5 101.644C231.002 101.644 230.517 101.491 230.108 101.207C229.7 100.923 229.388 100.521 229.215 100.054L225.68 90.3195L215.946 86.7852C215.479 86.612 215.077 86.3002 214.793 85.8917C214.509 85.4832 214.356 84.9976 214.356 84.5C214.356 84.0024 214.509 83.5168 214.793 83.1083C215.077 82.6998 215.479 82.388 215.946 82.2148L225.68 78.6805L229.215 68.9457C229.388 68.4792 229.7 68.0769 230.108 67.7928C230.517 67.5087 231.002 67.3564 231.5 67.3564C231.998 67.3564 232.483 67.5087 232.892 67.7928C233.3 68.0769 233.612 68.4792 233.785 68.9457L237.32 78.6805L247.054 82.2148C247.525 82.3825 247.932 82.6926 248.219 83.1021C248.506 83.5116 248.658 84.0002 248.654 84.5Z" fill="#FFAA4C"/>
</g>
</g>
<g opacity="0.7" clip-path="url(#clip7_1_8347)">
<g clip-path="url(#clip8_1_8347)">
<path d="M268.496 49.5C268.498 49.8204 268.401 50.1336 268.217 50.3961C268.033 50.6586 267.773 50.8574 267.471 50.9648L261.23 53.2305L258.965 59.4707C258.854 59.7697 258.654 60.0276 258.392 60.2097C258.13 60.3919 257.819 60.4895 257.5 60.4895C257.181 60.4895 256.87 60.3919 256.608 60.2097C256.346 60.0276 256.146 59.7697 256.035 59.4707L253.77 53.2305L247.529 50.9648C247.23 50.8539 246.972 50.654 246.79 50.3921C246.608 50.1303 246.51 49.819 246.51 49.5C246.51 49.181 246.608 48.8697 246.79 48.6079C246.972 48.346 247.23 48.1462 247.529 48.0352L253.77 45.7695L256.035 39.5293C256.146 39.2303 256.346 38.9724 256.608 38.7903C256.87 38.6081 257.181 38.5105 257.5 38.5105C257.819 38.5105 258.13 38.6081 258.392 38.7903C258.654 38.9724 258.854 39.2303 258.965 39.5293L261.23 45.7695L267.471 48.0352C267.773 48.1426 268.033 48.3414 268.217 48.6039C268.401 48.8664 268.498 49.1796 268.496 49.5Z" fill="#FFAA4C"/>
</g>
</g>
<defs>
<clipPath id="clip0_1_8347">
<rect x="21.6675" y="90.7539" width="158.481" height="328.741" rx="26.7704" transform="rotate(-17.1923 21.6675 90.7539)" fill="white"/>
</clipPath>
<clipPath id="clip1_1_8347">
<rect x="53.4199" y="157.151" width="137.065" height="113.507" rx="21.4163" transform="rotate(-17.1923 53.4199 157.151)" fill="white"/>
</clipPath>
<clipPath id="clip2_1_8347">
<rect x="44.2412" y="127.485" width="25.6996" height="25.6996" rx="12.8498" transform="rotate(-17.1923 44.2412 127.485)" fill="white"/>
</clipPath>
<clipPath id="clip3_1_8347">
<rect x="104.378" y="321.849" width="25.6996" height="25.6996" rx="12.8498" transform="rotate(-17.1923 104.378 321.849)" fill="white"/>
</clipPath>
<clipPath id="clip4_1_8347">
<rect x="113.557" y="351.515" width="137.065" height="113.507" rx="21.4163" transform="rotate(-17.1923 113.557 351.515)" fill="white"/>
</clipPath>
<clipPath id="clip5_1_8347">
<rect width="39" height="39" fill="white" transform="translate(212 65)"/>
</clipPath>
<clipPath id="clip6_1_8347">
<rect width="39" height="39" fill="white" transform="translate(212 65)"/>
</clipPath>
<clipPath id="clip7_1_8347">
<rect width="25" height="25" fill="white" transform="translate(245 37)"/>
</clipPath>
<clipPath id="clip8_1_8347">
<rect width="25" height="25" fill="white" transform="translate(245 37)"/>
</clipPath>
</defs>
</svg>
